<?xml version="1.0" encoding="UTF-8" standalone="no"?>
<!-- Created with Inkscape (http://www.inkscape.org/) -->

<svg
   xmlns:dc="http://purl.org/dc/elements/1.1/"
   xmlns:cc="http://creativecommons.org/ns#"
   xmlns:rdf="http://www.w3.org/1999/02/22-rdf-syntax-ns#"
   xmlns:svg="http://www.w3.org/2000/svg"
   xmlns="http://www.w3.org/2000/svg"
   xmlns:sodipodi="http://sodipodi.sourceforge.net/DTD/sodipodi-0.dtd"
   xmlns:inkscape="http://www.inkscape.org/namespaces/inkscape"
   id="svg2"
   version="1.1"
   inkscape:version="0.91 r13725"
   width="128"
   height="128"
   viewBox="0 0 128 128"
   sodipodi:docname="ic_phone.svg">
  <metadata
     id="metadata8">
    <rdf:RDF>
      <cc:Work
         rdf:about="">
        <dc:format>image/svg+xml</dc:format>
        <dc:type
           rdf:resource="http://purl.org/dc/dcmitype/StillImage" />
        <dc:title></dc:title>
      </cc:Work>
    </rdf:RDF>
  </metadata>
  <defs
     id="defs6" />
  <sodipodi:namedview
     pagecolor="#c9c9c9"
     bordercolor="#666666"
     borderopacity="1"
     objecttolerance="10"
     gridtolerance="10"
     guidetolerance="10"
     inkscape:pageopacity="0"
     inkscape:pageshadow="2"
     inkscape:window-width="1920"
     inkscape:window-height="1023"
     id="namedview4"
     showgrid="true"
     showguides="false"
     inkscape:zoom="5.0346667"
     inkscape:cx="78.839283"
     inkscape:cy="63.542875"
     inkscape:window-x="0"
     inkscape:window-y="27"
     inkscape:window-maximized="1"
     inkscape:current-layer="svg2">
    <inkscape:grid
       type="xygrid"
       id="grid4140" />
  </sodipodi:namedview>
  <path
     style="opacity:1;fill:#ffffff;fill-opacity:1;stroke:none;stroke-width:1.39400005;stroke-linecap:round;stroke-linejoin:round;stroke-miterlimit:4;stroke-dasharray:none;stroke-opacity:1"
     d="m 40.717266,11.884187 c -4.347942,0 -7.848269,3.500327 -7.848269,7.848268 l 0,90.255075 c 0,4.34794 3.500327,7.84828 7.848269,7.84828 l 43.165472,0 c 4.347942,0 7.848265,-3.50034 7.848265,-7.84828 l 0,-90.255075 c 0,-4.347941 -3.500323,-7.848268 -7.848265,-7.848268 l -43.165472,0 z M 56.4138,18.1628 l 11.772403,0 a 1.5698106,1.5698106 0 1 1 0,3.139308 l -11.772403,0 a 1.5698106,1.5698106 0 1 1 0,-3.139308 z m -15.696534,9.417922 43.165472,0 0,74.558548 -43.165472,0 0,-74.558548 z m 21.582746,77.892528 a 4.1225683,4.1225683 0 0 1 4.121865,4.12187 4.1225683,4.1225683 0 0 1 -4.121865,4.12188 4.1225683,4.1225683 0 0 1 -4.121885,-4.12188 4.1225683,4.1225683 0 0 1 4.121885,-4.12187 z"
     id="rect4142"
     inkscape:connector-curvature="0" />
</svg>
